<svg width="84" height="94" viewBox="0 0 84 94" fill="none" xmlns="http://www.w3.org/2000/svg">
<g opacity="0.7">
<path fill-rule="evenodd" clip-rule="evenodd" d="M50.991 88.5198C46.2943 91.4255 40.1314 89.9736 37.2257 85.2769L17.0003 52.5849C14.0946 47.8883 15.5465 41.7253 20.2432 38.8196L24.5061 36.1823L31.8016 31.6689L39.097 27.1555L45.7085 23.0652V23.0652C49.3599 20.8061 54.1513 21.9349 56.4103 25.5863L77.8066 60.1709C80.7122 64.8676 79.2603 71.0305 74.5636 73.9362L50.991 88.5198Z" fill="#2FDBBC"/>
<path d="M24.5061 36.1823L20.2432 38.8196C15.5465 41.7253 14.0946 47.8883 17.0003 52.5849L37.2257 85.2769C40.1314 89.9736 46.2943 91.4255 50.991 88.5198L74.5636 73.9362C79.2603 71.0305 80.7122 64.8676 77.8066 60.1709L56.4103 25.5863C54.1513 21.9349 49.3599 20.8061 45.7085 23.0652V23.0652M24.5061 36.1823C22.1412 31.3406 19.1092 20.7328 25.9008 17.0355C32.6923 13.3381 37.5281 22.2416 39.097 27.1555M24.5061 36.1823L31.8016 31.6689M39.097 27.1555L31.8016 31.6689M39.097 27.1555L45.7085 23.0652M31.8016 31.6689C27.7237 25.2045 21.0962 11.4779 27.2093 8.28687C33.3224 5.0958 42.0892 16.8094 45.7085 23.0652" stroke="#2FDBBC" stroke-width="2" stroke-linecap="round" stroke-linejoin="round"/>
</g>
</svg>
