<svg width="25" height="25" viewBox="0 0 25 25" fill="none" xmlns="http://www.w3.org/2000/svg">
<g opacity="0.7" clip-path="url(#clip0_20_17671)">
<g clip-path="url(#clip1_20_17671)">
<path d="M23.4961 12.5C23.4984 12.8204 23.401 13.1336 23.2172 13.3961C23.0335 13.6586 22.7726 13.8574 22.4707 13.9648L16.2305 16.2305L13.9648 22.4707C13.8539 22.7697 13.654 23.0276 13.3921 23.2097C13.1303 23.3919 12.819 23.4895 12.5 23.4895C12.181 23.4895 11.8697 23.3919 11.6079 23.2097C11.346 23.0276 11.1462 22.7697 11.0352 22.4707L8.76954 16.2305L2.5293 13.9648C2.23027 13.8538 1.97238 13.654 1.79026 13.3921C1.60814 13.1303 1.51053 12.819 1.51053 12.5C1.51053 12.181 1.60814 11.8697 1.79026 11.6079C1.97238 11.346 2.23027 11.1461 2.5293 11.0352L8.76954 8.76953L11.0352 2.52929C11.1462 2.23027 11.346 1.97237 11.6079 1.79025C11.8697 1.60814 12.181 1.51052 12.5 1.51052C12.819 1.51052 13.1303 1.60814 13.3921 1.79025C13.654 1.97237 13.8539 2.23027 13.9648 2.52929L16.2305 8.76953L22.4707 11.0352C22.7726 11.1426 23.0335 11.3414 23.2172 11.6039C23.401 11.8664 23.4984 12.1796 23.4961 12.5Z" fill="#FFAA4C"/>
</g>
</g>
<defs>
<clipPath id="clip0_20_17671">
<rect width="25" height="25" fill="white"/>
</clipPath>
<clipPath id="clip1_20_17671">
<rect width="25" height="25" fill="white"/>
</clipPath>
</defs>
</svg>
