<svg width="90" height="90" viewBox="0 0 90 90" fill="none" xmlns="http://www.w3.org/2000/svg">
<rect width="90" height="90" fill="#954CED"/>
<g clip-path="url(#clip0_20_17755)">
<path d="M36.8719 63.6631C53.9553 63.6631 63.2991 49.5097 63.2991 37.2359C63.2991 36.8339 63.2991 36.4337 63.2719 36.0353C65.0897 34.7205 66.6588 33.0925 67.9058 31.2276C66.2108 31.9791 64.4125 32.4717 62.5712 32.6889C64.5102 31.5283 65.9614 29.7025 66.6546 27.5516C64.8314 28.6336 62.8367 29.3961 60.7567 29.8061C59.3563 28.317 57.5042 27.331 55.487 27.0006C53.4697 26.6702 51.3998 27.0139 49.5976 27.9784C47.7954 28.9429 46.3612 30.4745 45.5172 32.3362C44.6731 34.1979 44.4661 36.2859 44.9283 38.2771C41.2356 38.0919 37.6231 37.1322 34.3254 35.4604C31.0276 33.7886 28.1182 31.442 25.7861 28.5729C24.5984 30.6176 24.2346 33.0382 24.7688 35.3417C25.3031 37.6452 26.6952 39.6585 28.6617 40.9716C27.1835 40.9283 25.7375 40.5295 24.4461 39.8091V39.9268C24.4467 42.0712 25.189 44.1494 26.5471 45.8089C27.9053 47.4684 29.7957 48.607 31.8976 49.0316C30.5302 49.4046 29.0955 49.4591 27.7037 49.1909C28.2975 51.0363 29.4531 52.6501 31.0089 53.8065C32.5647 54.963 34.443 55.6044 36.3812 55.6411C34.4555 57.1548 32.2502 58.2739 29.8915 58.9345C27.5328 59.5951 25.0671 59.7842 22.6353 59.4909C26.8828 62.2166 31.825 63.6624 36.8719 63.6558" fill="white"/>
</g>
<defs>
<clipPath id="clip0_20_17755">
<rect width="45.2706" height="45.2706" fill="white" transform="translate(22.6353 22.6353)"/>
</clipPath>
</defs>
</svg>
