<svg width="184" height="46" viewBox="0 0 184 46" fill="none" xmlns="http://www.w3.org/2000/svg">
<g clip-path="url(#clip0_20_17957)">
<path d="M75.9001 30.5273C72.9728 34.0818 68.791 36.3818 64.191 36.3818C56.2455 36.3818 49.9728 30.7364 49.9728 23.4182C49.9728 19.8636 51.4364 16.5182 54.1546 14.0091C56.6637 11.5 60.2182 10.2455 63.7728 10.4545C68.3728 10.4545 72.7637 12.5455 75.4819 16.3091L70.2546 20.0727C68.791 17.7727 66.491 16.3091 63.7728 16.3091C59.8001 16.3091 56.4546 19.6545 56.4546 23.6273C56.6637 27.8091 60.0091 30.9455 63.9819 30.9455C66.7001 30.9455 69.2091 29.6909 70.6728 27.3909L75.9001 30.5273Z" fill="#181818"/>
<path d="M85.3091 0H78.8273V35.7545H85.3091V0Z" fill="#181818"/>
<path d="M102.664 30.7364C106.845 30.7364 110.4 27.3909 110.609 23.2091C110.4 19.0273 106.845 15.6818 102.664 15.6818C98.4818 15.6818 94.9273 19.0273 94.7182 23.2091C94.9273 27.3909 98.2727 30.7364 102.664 30.7364ZM102.664 10.2455C106.218 10.0364 109.773 11.2909 112.491 13.8C115.209 16.3091 116.673 19.6545 116.882 23.2091C116.673 26.7636 115.209 30.3182 112.491 32.6182C109.773 35.1273 106.218 36.3818 102.664 36.1727C94.7182 36.1727 88.4454 30.5273 88.4454 23.2091C88.4454 15.8909 94.7182 10.2455 102.664 10.2455Z" fill="#181818"/>
<path d="M115.627 10.6636H123.364L129.636 24.0455L136.327 10.6636H143.436L129.636 37.2182L115.627 10.6636Z" fill="#181818"/>
<path d="M162.045 19.6545C161 17.1455 158.7 15.6818 155.982 15.6818C153.264 15.6818 150.755 17.1455 149.5 19.6545H162.045ZM166.227 32.8273C163.509 35.1273 160.164 36.1727 156.609 36.1727C148.664 36.1727 142.391 30.5273 142.391 23.2091C142.391 19.6545 143.855 16.3091 146.364 13.8C148.873 11.2909 152.427 10.0364 155.982 10.2455C159.536 10.0364 162.882 11.5 165.391 14.0091C167.9 16.5182 169.155 19.8636 168.945 23.4182V25.0909H148.873C149.918 28.4364 153.055 30.7364 156.609 30.7364C158.7 30.7364 160.791 29.9 162.464 28.2273L166.227 32.8273ZM172.082 21.7455C172.082 15.6818 176.682 10.8727 184 10.8727V16.7273C182.536 16.7273 180.864 17.3545 179.818 18.4C178.773 19.4455 178.355 21.1182 178.564 22.5818V35.7545H172.082V21.7455Z" fill="#181818"/>
<path d="M20.2819 11.7091C20.2819 7.52727 17.7728 3.97273 14.0091 2.3C10.2455 0.627272 5.85459 1.46364 2.92731 4.39091C4.18609e-05 7.31818 -0.836322 11.7091 0.627315 15.4727C2.09095 19.2364 5.85459 21.7455 10.0364 21.7455H20.2819V11.7091ZM23.2091 11.7091C23.2091 7.52727 25.7182 3.97273 29.4819 2.3C33.2455 0.627272 37.6364 1.46364 40.5637 4.39091C43.4909 7.31818 44.3273 11.7091 42.8637 15.4727C41.4 19.2364 37.6364 21.7455 33.4546 21.7455H23.2091V11.7091ZM23.2091 34.7091C23.2091 38.8909 25.7182 42.4455 29.4819 44.1182C33.2455 45.7909 37.6364 44.9545 40.5637 42.0273C43.4909 39.1 44.3273 34.7091 42.8637 30.9455C41.4 27.1818 37.6364 24.6727 33.4546 24.6727H23.2091V34.7091ZM10.0364 42.0273C14.0091 42.0273 17.3546 38.8909 17.3546 34.7091V27.3909H10.0364C6.06368 27.3909 2.71822 30.5273 2.71822 34.7091C2.71822 38.8909 6.06368 42.0273 10.0364 42.0273ZM20.2819 34.7091C20.2819 38.8909 17.7728 42.4455 14.0091 44.1182C10.2455 45.7909 5.85459 44.9545 2.92731 42.0273C4.18609e-05 39.1 -0.836322 34.7091 0.627315 30.9455C2.09095 27.1818 5.85459 24.6727 10.0364 24.6727H20.2819V34.7091Z" fill="#444444"/>
</g>
<defs>
<clipPath id="clip0_20_17957">
<rect width="184" height="46" fill="white"/>
</clipPath>
</defs>
</svg>
