<svg width="194" height="57" viewBox="0 0 194 57" fill="none" xmlns="http://www.w3.org/2000/svg">
<path d="M194 51.2863C194 54.443 191.503 57 188.414 57H5.59377C2.5062 57 0 54.443 0 51.2863V5.72118C0 2.56595 2.5062 0 5.59377 0H188.412C191.503 0 193.999 2.56595 193.999 5.72118L194 51.2863Z" fill="#242424"/>
<path d="M42.6916 26.6964C42.6494 22.1747 46.5265 19.9749 46.7038 19.8725C44.508 16.7818 41.1047 16.3596 39.9087 16.3259C37.0503 16.0355 34.2776 17.9771 32.8215 17.9771C31.3364 17.9771 29.0941 16.3539 26.6775 16.4016C23.5677 16.4479 20.6584 18.1862 19.0628 20.8854C15.7699 26.3892 18.2258 34.4771 21.3806 38.9259C22.9588 41.1046 24.8029 43.5373 27.2166 43.4517C29.578 43.3577 30.4601 41.9983 33.3098 41.9983C36.1333 41.9983 36.9616 43.4517 39.4233 43.397C41.9577 43.3577 43.5533 41.2084 45.0762 39.01C46.9 36.5128 47.6324 34.0534 47.6614 33.9272C47.6019 33.9075 42.7395 32.116 42.6916 26.6964Z" fill="white"/>
<path d="M38.0414 13.3993C39.3114 11.8659 40.1804 9.77976 39.9392 7.66272C38.1009 7.74128 35.802 8.89029 34.4782 10.39C33.3069 11.7116 32.2606 13.8777 32.5309 15.9148C34.5959 16.0635 36.7161 14.9089 38.0414 13.3993Z" fill="white"/>
<path d="M76.8659 43.1388H73.5658L71.758 37.6547H65.4744L63.7524 43.1388H60.5394L66.7649 24.4685H70.61L76.8659 43.1388ZM71.2131 35.3539L69.5782 30.4787C69.4053 29.9806 69.0812 28.8078 68.6031 26.9615H68.545C68.3546 27.7556 68.048 28.9284 67.6266 30.4787L66.0208 35.3539H71.2131V35.3539Z" fill="white"/>
<path d="M92.8756 36.2426C92.8756 38.5322 92.2348 40.342 90.9531 41.6706C89.8051 42.8533 88.3795 43.4439 86.6778 43.4439C84.841 43.4439 83.5215 42.807 82.7179 41.5331H82.6598V48.625H79.5616V34.1087C79.5616 32.6693 79.5223 31.192 79.4468 29.6768H82.1715L82.3444 31.8107H82.4026C83.4358 30.2029 85.0037 29.4005 87.108 29.4005C88.753 29.4005 90.1262 30.0276 91.2248 31.2832C92.3263 32.5402 92.8756 34.1929 92.8756 36.2426ZM89.7193 36.352C89.7193 35.0417 89.4142 33.9614 88.8009 33.1112C88.131 32.2246 87.2315 31.7813 86.1038 31.7813C85.3394 31.7813 84.6448 32.0282 84.0243 32.515C83.4023 33.006 82.9954 33.6472 82.8051 34.4412C82.7092 34.8116 82.6612 35.1146 82.6612 35.3531V37.5978C82.6612 38.5771 82.9722 39.4034 83.5942 40.0782C84.2161 40.7531 85.0241 41.0898 86.0181 41.0898C87.185 41.0898 88.0932 40.6549 88.7428 39.7878C89.3938 38.9194 89.7193 37.7746 89.7193 36.352Z" fill="white"/>
<path d="M108.915 36.2426C108.915 38.5322 108.274 40.342 106.991 41.6706C105.844 42.8533 104.418 43.4439 102.717 43.4439C100.88 43.4439 99.5605 42.807 98.7583 41.5331H98.7002V48.625H95.602V34.1087C95.602 32.6693 95.5627 31.192 95.4872 29.6768H98.2119L98.3848 31.8107H98.443C99.4747 30.2029 101.043 29.4005 103.148 29.4005C104.792 29.4005 106.165 30.0276 107.267 31.2832C108.364 32.5402 108.915 34.1929 108.915 36.2426ZM105.758 36.352C105.758 35.0417 105.452 33.9614 104.838 33.1112C104.169 32.2246 103.272 31.7813 102.143 31.7813C101.377 31.7813 100.684 32.0282 100.062 32.515C99.4398 33.006 99.0344 33.6472 98.844 34.4412C98.7496 34.8116 98.7002 35.1146 98.7002 35.3531V37.5978C98.7002 38.5771 99.0112 39.4034 99.6302 40.0782C100.252 40.7517 101.06 41.0898 102.057 41.0898C103.224 41.0898 104.132 40.6549 104.782 39.7878C105.433 38.9194 105.758 37.7746 105.758 36.352Z" fill="white"/>
<path d="M126.847 37.9034C126.847 39.4915 126.276 40.7836 125.129 41.7811C123.869 42.8712 122.115 43.4156 119.861 43.4156C117.78 43.4156 116.112 43.0283 114.849 42.2525L115.567 39.7595C116.927 40.5536 118.42 40.952 120.046 40.952C121.213 40.952 122.121 40.6967 122.774 40.1888C123.423 39.6809 123.747 38.9991 123.747 38.1489C123.747 37.3913 123.48 36.753 122.944 36.2353C122.41 35.7176 121.519 35.2364 120.276 34.7917C116.89 33.5725 115.198 31.7866 115.198 29.438C115.198 27.9032 115.791 26.6448 116.978 25.6655C118.161 24.6849 119.739 24.1953 121.713 24.1953C123.473 24.1953 124.934 24.4913 126.101 25.0819L125.327 27.5202C124.237 26.9478 123.005 26.6616 121.626 26.6616C120.536 26.6616 119.684 26.9212 119.074 27.4375C118.558 27.899 118.299 28.4616 118.299 29.128C118.299 29.8659 118.594 30.4762 119.187 30.956C119.703 31.3994 120.64 31.8792 122 32.3969C123.664 33.0436 124.886 33.7998 125.673 34.6668C126.456 35.531 126.847 36.6127 126.847 37.9034Z" fill="white"/>
<path d="M137.09 31.9211H133.675V38.4574C133.675 40.1198 134.277 40.9504 135.483 40.9504C136.037 40.9504 136.496 40.9041 136.859 40.8115L136.945 43.0829C136.335 43.3031 135.531 43.4139 134.536 43.4139C133.312 43.4139 132.356 43.0534 131.666 42.3337C130.978 41.6126 130.632 40.4032 130.632 38.7043V31.9182H128.598V29.6735H130.632V27.2086L133.675 26.3219V29.6735H137.09V31.9211Z" fill="white"/>
<path d="M152.498 36.2969C152.498 38.3662 151.885 40.0652 150.661 41.3938C149.378 42.7616 147.675 43.4435 145.552 43.4435C143.506 43.4435 141.877 42.7883 140.662 41.4779C139.447 40.1676 138.84 38.5135 138.84 36.5199C138.84 34.4338 139.465 32.725 140.719 31.3964C141.97 30.0664 143.658 29.4014 145.782 29.4014C147.828 29.4014 149.474 30.0566 150.717 31.3683C151.905 32.6408 152.498 34.2837 152.498 36.2969ZM149.284 36.3937C149.284 35.1521 149.009 34.0872 148.453 33.1992C147.803 32.1245 146.874 31.5886 145.671 31.5886C144.426 31.5886 143.48 32.1259 142.83 33.1992C142.274 34.0887 141.999 35.1703 141.999 36.4498C141.999 37.6914 142.274 38.7562 142.83 39.6429C143.5 40.7175 144.436 41.2535 145.644 41.2535C146.826 41.2535 147.755 40.7063 148.425 39.6148C148.996 38.7099 149.284 37.6339 149.284 36.3937Z" fill="white"/>
<path d="M162.569 32.3074C162.262 32.2526 161.935 32.2246 161.592 32.2246C160.502 32.2246 159.66 32.6216 159.067 33.4171C158.551 34.1186 158.292 35.0052 158.292 36.0757V43.1395H155.195L155.224 33.9165C155.224 32.3649 155.185 30.9521 155.108 29.6782H157.807L157.92 32.254H158.006C158.333 31.3688 158.849 30.6561 159.555 30.1216C160.245 29.6404 160.991 29.4005 161.794 29.4005C162.081 29.4005 162.339 29.4201 162.569 29.4552V32.3074Z" fill="white"/>
<path d="M176.425 35.771C176.425 36.3069 176.389 36.7587 176.312 37.1276H167.017C167.053 38.4576 167.502 39.4748 168.366 40.1762C169.149 40.8033 170.162 41.1176 171.406 41.1176C172.782 41.1176 174.037 40.9058 175.167 40.4807L175.652 42.557C174.332 43.1126 172.775 43.389 170.977 43.389C168.815 43.389 167.117 42.7745 165.882 41.5469C164.65 40.3193 164.032 38.6709 164.032 36.6029C164.032 34.5729 164.606 32.8823 165.756 31.5341C166.959 30.0947 168.585 29.375 170.631 29.375C172.641 29.375 174.162 30.0947 175.196 31.5341C176.014 32.6775 176.425 34.0917 176.425 35.771ZM173.471 34.9952C173.491 34.1085 173.289 33.3425 172.869 32.6957C172.333 31.8638 171.509 31.4485 170.4 31.4485C169.387 31.4485 168.563 31.854 167.934 32.6677C167.418 33.3144 167.112 34.0903 167.017 34.9938H173.471V34.9952Z" fill="white"/>
<path d="M70.1887 12.9826C70.1887 14.6338 69.6757 15.8768 68.6512 16.7116C67.7023 17.4818 66.3537 17.8676 64.607 17.8676C63.7409 17.8676 62.9998 17.8311 62.3793 17.7582V8.73586C63.1887 8.60959 64.0606 8.54506 65.0023 8.54506C66.6662 8.54506 67.9203 8.89439 68.766 9.59306C69.7135 10.3829 70.1887 11.5123 70.1887 12.9826ZM68.5829 13.0232C68.5829 11.9528 68.2894 11.1321 67.7023 10.5597C67.1152 9.98868 66.2578 9.70248 65.1287 9.70248C64.6492 9.70248 64.2408 9.73335 63.9022 9.79788V16.6569C64.0897 16.6849 64.4326 16.6976 64.9311 16.6976C66.0965 16.6976 66.996 16.3847 67.6296 15.759C68.2632 15.1333 68.5829 14.2214 68.5829 13.0232Z" fill="white"/>
<path d="M78.7028 14.4245C78.7028 15.4417 78.4019 16.275 77.8003 16.9288C77.1696 17.6008 76.3341 17.9361 75.2907 17.9361C74.2851 17.9361 73.4844 17.6148 72.8871 16.9695C72.2913 16.3255 71.9934 15.5132 71.9934 14.534C71.9934 13.5098 72.3 12.6695 72.9162 12.0171C73.5323 11.3647 74.3606 11.0378 75.404 11.0378C76.4096 11.0378 77.2176 11.3591 77.8294 12.0031C78.4107 12.6288 78.7028 13.4369 78.7028 14.4245ZM77.1231 14.4722C77.1231 13.862 76.9866 13.3387 76.7148 12.9024C76.3951 12.3748 75.9403 12.1111 75.3488 12.1111C74.737 12.1111 74.272 12.3748 73.9523 12.9024C73.6791 13.3387 73.544 13.8704 73.544 14.4989C73.544 15.1092 73.6806 15.6325 73.9523 16.0688C74.2822 16.5963 74.7414 16.86 75.3343 16.86C75.9156 16.86 76.3719 16.5921 76.7003 16.0548C76.9822 15.61 77.1231 15.0825 77.1231 14.4722Z" fill="white"/>
<path d="M90.1192 11.1729L87.9758 17.7864H86.5807L85.6928 14.9146C85.4676 14.1977 85.2845 13.485 85.1421 12.7779H85.1144C84.9822 13.5046 84.7991 14.2159 84.5637 14.9146L83.6206 17.7864H82.2095L80.194 11.1729H81.759L82.5336 14.3169C82.721 15.0605 82.8751 15.769 82.9986 16.4396H83.0262C83.1396 15.8868 83.327 15.1825 83.5915 14.331L84.5637 11.1743H85.8047L86.7362 14.2636C86.9614 15.017 87.1445 15.7423 87.2855 16.441H87.3276C87.4308 15.7605 87.5863 15.0352 87.7927 14.2636L88.6239 11.1743H90.1192V11.1729Z" fill="white"/>
<path d="M98.0143 17.7859H96.4914V13.9979C96.4914 12.8307 96.0322 12.2471 95.1108 12.2471C94.6589 12.2471 94.2942 12.407 94.0108 12.7283C93.7303 13.0495 93.5879 13.4283 93.5879 13.8618V17.7845H92.065V13.0622C92.065 12.4814 92.0461 11.8514 92.0098 11.1696H93.3481L93.4194 12.2036H93.4615C93.6388 11.8823 93.9033 11.6171 94.2506 11.4053C94.6633 11.1584 95.1254 11.0335 95.6311 11.0335C96.2705 11.0335 96.8023 11.2327 97.2252 11.6326C97.7513 12.1222 98.0143 12.8531 98.0143 13.824V17.7859V17.7859Z" fill="white"/>
<path d="M102.214 17.7862H100.693V8.13815H102.214V17.7862Z" fill="white"/>
<path d="M111.18 14.4245C111.18 15.4417 110.879 16.275 110.278 16.9288C109.647 17.6008 108.81 17.9361 107.768 17.9361C106.761 17.9361 105.96 17.6148 105.365 16.9695C104.769 16.3255 104.471 15.5132 104.471 14.534C104.471 13.5098 104.778 12.6695 105.394 12.0171C106.01 11.3647 106.838 11.0378 107.88 11.0378C108.887 11.0378 109.694 11.3591 110.307 12.0031C110.888 12.6288 111.18 13.4369 111.18 14.4245ZM109.599 14.4722C109.599 13.862 109.463 13.3387 109.191 12.9024C108.873 12.3748 108.416 12.1111 107.826 12.1111C107.213 12.1111 106.748 12.3748 106.43 12.9024C106.157 13.3387 106.021 13.8704 106.021 14.4989C106.021 15.1092 106.158 15.6325 106.43 16.0688C106.76 16.5963 107.219 16.86 107.812 16.86C108.393 16.86 108.848 16.5921 109.176 16.0548C109.46 15.61 109.599 15.0825 109.599 14.4722Z" fill="white"/>
<path d="M118.551 17.786H117.183L117.07 17.0242H117.028C116.56 17.6317 115.893 17.9361 115.027 17.9361C114.38 17.9361 113.857 17.7355 113.463 17.337C113.106 16.9751 112.927 16.5247 112.927 15.9902C112.927 15.1821 113.276 14.5662 113.978 14.1397C114.678 13.7133 115.663 13.5042 116.932 13.514V13.3906C116.932 12.5194 116.458 12.0844 115.509 12.0844C114.833 12.0844 114.238 12.2486 113.723 12.5741L113.414 11.6088C114.05 11.2286 114.836 11.0378 115.763 11.0378C117.554 11.0378 118.452 11.9498 118.452 13.7736V16.2091C118.452 16.8699 118.485 17.396 118.551 17.786ZM116.97 15.5132V14.4933C115.29 14.4652 114.45 14.91 114.45 15.8261C114.45 16.1712 114.546 16.4293 114.742 16.6019C114.938 16.7745 115.188 16.86 115.486 16.86C115.82 16.86 116.133 16.7576 116.417 16.5542C116.704 16.3494 116.88 16.0898 116.945 15.7714C116.961 15.6998 116.97 15.6128 116.97 15.5132Z" fill="white"/>
<path d="M127.204 17.7862H125.853L125.782 16.7242H125.74C125.308 17.5322 124.573 17.9363 123.54 17.9363C122.714 17.9363 122.027 17.6234 121.482 16.9977C120.937 16.372 120.665 15.5597 120.665 14.5622C120.665 13.4918 120.96 12.6248 121.553 11.9626C122.127 11.3453 122.83 11.0366 123.667 11.0366C124.587 11.0366 125.231 11.3355 125.597 11.9345H125.626V8.13815H127.151V16.0044C127.151 16.6484 127.168 17.2418 127.204 17.7862ZM125.626 14.9971V13.8944C125.626 13.7036 125.612 13.5493 125.584 13.4315C125.498 13.0779 125.314 12.7805 125.033 12.5406C124.75 12.3007 124.409 12.18 124.015 12.18C123.447 12.18 123.002 12.3975 122.675 12.8338C122.351 13.2701 122.187 13.8271 122.187 14.5075C122.187 15.1613 122.342 15.6916 122.655 16.0998C122.984 16.5348 123.429 16.7522 123.986 16.7522C124.486 16.7522 124.885 16.5712 125.189 16.2079C125.482 15.8726 125.626 15.4685 125.626 14.9971Z" fill="white"/>
<path d="M140.229 14.4245C140.229 15.4417 139.929 16.275 139.327 16.9288C138.696 17.6008 137.862 17.9361 136.817 17.9361C135.813 17.9361 135.012 17.6148 134.414 16.9695C133.818 16.3255 133.52 15.5132 133.52 14.534C133.52 13.5098 133.827 12.6695 134.443 12.0171C135.059 11.3647 135.887 11.0378 136.932 11.0378C137.936 11.0378 138.746 11.3591 139.356 12.0031C139.937 12.6288 140.229 13.4369 140.229 14.4245ZM138.651 14.4722C138.651 13.862 138.515 13.3387 138.243 12.9024C137.922 12.3748 137.468 12.1111 136.875 12.1111C136.265 12.1111 135.8 12.3748 135.479 12.9024C135.206 13.3387 135.071 13.8704 135.071 14.4989C135.071 15.1092 135.207 15.6325 135.479 16.0688C135.809 16.5963 136.268 16.86 136.861 16.86C137.442 16.86 137.9 16.5921 138.228 16.0548C138.509 15.61 138.651 15.0825 138.651 14.4722Z" fill="white"/>
<path d="M148.418 17.7859H146.896V13.9979C146.896 12.8307 146.437 12.2471 145.514 12.2471C145.062 12.2471 144.698 12.407 144.416 12.7283C144.134 13.0495 143.993 13.4283 143.993 13.8618V17.7845H142.469V13.0622C142.469 12.4814 142.451 11.8514 142.415 11.1696H143.752L143.823 12.2036H143.865C144.044 11.8823 144.308 11.6171 144.654 11.4053C145.068 11.1584 145.529 11.0335 146.036 11.0335C146.674 11.0335 147.206 11.2327 147.629 11.6326C148.156 12.1222 148.418 12.8531 148.418 13.824V17.7859V17.7859Z" fill="white"/>
<path d="M158.667 12.2741H156.99V15.4868C156.99 16.3033 157.288 16.7116 157.878 16.7116C158.151 16.7116 158.378 16.6891 158.557 16.6429L158.596 17.7582C158.295 17.8676 157.9 17.9223 157.413 17.9223C156.812 17.9223 156.344 17.7456 156.005 17.392C155.665 17.0385 155.496 16.4436 155.496 15.6089V12.2741H154.495V11.1728H155.496V9.96064L156.989 9.52573V11.1714H158.666V12.2741H158.667Z" fill="white"/>
<path d="M166.73 17.7862H165.205V14.0263C165.205 12.8408 164.746 12.2474 163.826 12.2474C163.12 12.2474 162.637 12.5911 162.373 13.2785C162.328 13.423 162.302 13.5998 162.302 13.8074V17.7848H160.78V8.13815H162.302V12.1239H162.331C162.81 11.3986 163.498 11.0366 164.388 11.0366C165.019 11.0366 165.541 11.2358 165.955 11.6357C166.471 12.1337 166.73 12.8745 166.73 13.8537V17.7862V17.7862Z" fill="white"/>
<path d="M175.046 14.1663C175.046 14.43 175.026 14.6517 174.989 14.8327H170.422C170.442 15.4865 170.66 15.9845 171.083 16.3296C171.47 16.6383 171.968 16.7926 172.579 16.7926C173.254 16.7926 173.87 16.6888 174.426 16.4797L174.664 17.5011C174.014 17.7733 173.25 17.9093 172.365 17.9093C171.304 17.9093 170.469 17.6077 169.864 17.0044C169.257 16.4012 168.956 15.5917 168.956 14.576C168.956 13.5785 169.236 12.7479 169.802 12.0857C170.392 11.3786 171.189 11.0251 172.196 11.0251C173.182 11.0251 173.93 11.3786 174.436 12.0857C174.844 12.6469 175.046 13.3414 175.046 14.1663ZM173.593 13.7861C173.605 13.3498 173.504 12.9738 173.298 12.6567C173.033 12.2485 172.631 12.0436 172.086 12.0436C171.589 12.0436 171.184 12.2429 170.874 12.6427C170.621 12.9612 170.471 13.3414 170.422 13.7861H173.593Z" fill="white"/>
</svg>
