<svg width="129" height="180" viewBox="0 0 129 180" fill="none" xmlns="http://www.w3.org/2000/svg">
<g opacity="0.7">
<path fill-rule="evenodd" clip-rule="evenodd" d="M88.6881 42.6199C94.1081 41.2443 99.6029 44.5806 100.883 50.024L121.549 137.931C122.63 142.527 120.348 147.253 116.077 149.265L71.2932 170.366C69.5869 171.17 67.688 171.474 65.8158 171.245L44.0552 168.581C39.8636 168.068 36.4462 164.977 35.5161 160.858L15.291 71.2919C14.0972 66.0052 17.3322 60.7297 22.5854 59.3965L29.856 57.5512L46.5662 53.3103L60.9555 49.6583L75.3448 46.0064L88.6881 42.6199Z" fill="#A64CED"/>
<path d="M46.5662 53.3103C44.4391 44.9294 42.9701 27.4608 54.1102 24.6335C65.2503 21.8062 72.9083 37.7041 75.3448 46.0064M46.5662 53.3103L60.9555 49.6583M46.5662 53.3103L29.856 57.5512M75.3448 46.0064L88.6881 42.6199C94.1081 41.2443 99.6029 44.5806 100.883 50.024L121.549 137.931C122.63 142.527 120.348 147.253 116.077 149.265L71.2932 170.366C69.5869 171.17 67.688 171.474 65.8158 171.245L44.0552 168.581C39.8636 168.068 36.4462 164.977 35.5161 160.858L15.291 71.2919C14.0972 66.0052 17.3322 60.7297 22.5854 59.3965L29.856 57.5512M75.3448 46.0064L60.9555 49.6583M60.9555 49.6583C56.9858 36.6832 45.9217 11.4982 33.4225 14.5591C20.9232 17.62 25.8368 44.4959 29.856 57.5512" stroke="#A64CED" stroke-width="2" stroke-linecap="round" stroke-linejoin="round"/>
<path d="M67.029 160.066L61.482 140.134M44.841 80.3399L55.935 120.203" stroke="white" stroke-width="2" stroke-linecap="round" stroke-linejoin="round"/>
</g>
</svg>
