<svg width="103" height="129" viewBox="0 0 103 129" fill="none" xmlns="http://www.w3.org/2000/svg">
<g opacity="0.7">
<path fill-rule="evenodd" clip-rule="evenodd" d="M52.7643 125.321C57.9212 127.298 63.7043 124.72 65.6811 119.563L87.6779 62.1809C89.6547 57.024 87.0767 51.2409 81.9198 49.2641L71.7196 45.354L60.5552 41.0743L49.3909 36.7946L39.2732 32.9161L38.4929 32.617C33.336 30.6402 27.5529 33.2182 25.5761 38.3751L3.57938 95.7574C1.60254 100.914 4.18051 106.697 9.33745 108.674L52.7643 125.321Z" fill="#FFAA4C"/>
<path d="M71.7196 45.354L81.9198 49.2641C87.0767 51.2409 89.6547 57.024 87.6779 62.1809L65.6811 119.563C63.7043 124.72 57.9212 127.298 52.7643 125.321L9.33745 108.674C4.18051 106.697 1.60254 100.914 3.57938 95.7574L25.5761 38.3751C27.5529 33.2182 33.336 30.6402 38.4929 32.617L39.2732 32.9161M71.7196 45.354C73.6966 38.1088 75.0852 22.795 64.8233 19.5015C54.5614 16.208 50.2592 29.6579 49.3909 36.7946M71.7196 45.354L60.5552 41.0743M49.3909 36.7946L60.5552 41.0743M49.3909 36.7946L39.2732 32.9161M60.5552 41.0743C64.455 31.1612 69.9543 10.6408 60.7532 7.86375C51.552 5.08671 42.5994 23.4082 39.2732 32.9161" stroke="#FFAA4C" stroke-width="2" stroke-linecap="round" stroke-linejoin="round"/>
</g>
</svg>
