<svg width="126" height="60" viewBox="0 0 126 60" fill="none" xmlns="http://www.w3.org/2000/svg">
<g clip-path="url(#clip0_20_17784)">
<path d="M21.54 60C21.0106 59.9161 20.4758 59.8562 19.9528 59.7419C17.5628 59.2192 15.8545 57.8101 14.9609 55.5354C13.646 52.1847 13.5563 48.7437 14.7243 45.3408C15.7594 42.3321 18.2726 40.5822 21.4234 40.5495C22.3918 40.5261 23.3595 40.619 24.3061 40.8261C26.9068 41.4381 28.5838 43.1466 29.3736 45.6697C30.3331 48.7383 30.3396 51.8526 29.2991 54.9016C28.2748 57.9027 26.1656 59.633 22.9749 59.9107C22.8533 59.9307 22.7333 59.9602 22.6162 59.9989L21.54 60ZM19.1003 50.0831C19.2829 51.4813 19.3834 52.7074 19.62 53.9063C19.7929 54.7775 20.3418 55.4363 21.2602 55.6704C22.6713 56.0286 23.9193 55.2762 24.3353 53.7604C24.7502 52.2196 24.8741 50.6138 24.7005 49.0268C24.6024 48.0966 24.4072 47.1793 24.1181 46.2904C24.0013 45.8953 23.7743 45.5424 23.4642 45.2737C23.1541 45.005 22.7738 44.8317 22.3688 44.7746C21.1057 44.5677 20.1235 45.11 19.7432 46.4624C19.4007 47.682 19.2894 48.968 19.1003 50.0831Z" fill="#181818"/>
<path d="M124.855 59.4566C123.039 59.4675 121.224 59.4816 119.408 59.4882C117.895 59.4936 116.392 59.4882 114.849 59.4882V41.0776C114.966 41.0545 115.085 41.0392 115.204 41.0319C118.279 41.0319 121.354 41.0319 124.43 41.0319C124.572 41.0407 124.714 41.0582 124.855 41.0842V44.9978H119.804V48.3735H124.081V52.1923H119.799V55.5397H124.855V59.4566Z" fill="#181818"/>
<path d="M110.065 60C109.322 59.8769 108.568 59.804 107.842 59.621C106.069 59.1734 104.473 58.1907 103.269 56.8043C102.065 55.418 101.31 53.6942 101.104 51.8635C100.875 49.9295 100.9 48.0087 101.684 46.2011C103.232 42.6468 106.006 40.7836 109.826 40.568C110.997 40.5027 112.183 40.6769 113.392 40.7488V45.2439L111.801 44.9684C108.335 44.3619 106.507 46.96 106.301 49.4798C106.218 50.5154 106.286 51.5488 106.643 52.5288C107.407 54.6446 109.379 55.8141 111.652 55.4885C112.219 55.4069 112.78 55.2838 113.424 55.1619V59.5546L111.047 59.9902L110.065 60Z" fill="#181818"/>
<path d="M9.55738 60C8.92097 59.8976 8.27916 59.8246 7.65031 59.6896C3.81997 58.8631 1.01069 55.678 0.591455 51.7404C0.440186 50.3248 0.433702 48.919 0.766494 47.5295C1.73137 43.5005 5.16086 40.6867 9.34668 40.5658C10.5201 40.5321 11.6989 40.6867 12.8907 40.7564V45.2439C12.3569 45.1524 11.8351 45.0653 11.3143 44.9738C7.83832 44.3586 5.97231 46.96 5.7897 49.5778C5.71299 50.6722 5.80915 51.7557 6.23487 52.776C7.05064 54.7361 8.96419 55.8054 11.1381 55.4983C11.7065 55.4178 12.2683 55.2947 12.8745 55.1836V59.5753L10.5287 60.0043L9.55738 60Z" fill="#181818"/>
<path d="M68.3059 32.9934L70.8721 39.3637C70.5112 39.1698 70.2832 39.0511 70.0606 38.9281C66.7111 37.0519 63.3756 35.1669 60.0185 33.3114C59.6436 33.1125 59.2267 33.0072 58.803 33.0043C50.6186 32.9869 42.4332 32.9825 34.2466 32.9913C31.1413 32.9913 28.7188 31.0105 28.1116 27.9539C28.0431 27.5252 28.0166 27.0908 28.0327 26.657C28.0273 19.9361 28.0738 13.2141 28.01 6.49434C27.9787 3.13935 30.3266 0.781819 32.7999 0.314669C33.2752 0.217199 33.7584 0.163981 34.2434 0.155685C51.9635 0.148426 69.6835 0.148426 87.4036 0.155685C90.4722 0.155685 92.8817 2.07438 93.5387 5.07438C93.659 5.69583 93.7129 6.32847 93.6997 6.96149C93.7112 13.3753 93.713 19.7884 93.7051 26.2007C93.7051 27.7873 93.4414 29.2965 92.4268 30.5913C91.1994 32.156 89.5884 32.9804 87.6273 32.9869C81.4566 33.0141 75.2859 32.9967 69.1152 32.9967L68.3059 32.9934ZM44.9856 17.7615C45.0364 17.8225 45.0667 17.8443 45.0775 17.8704C45.1077 17.9553 45.1304 18.0424 45.1564 18.1285C46.1612 21.3952 47.407 24.5531 49.4783 27.2983C50.0931 28.1139 50.7695 28.9263 51.5637 29.5535C52.9813 30.6718 54.5891 29.976 54.9132 28.1945C54.9488 27.9056 54.9592 27.6141 54.9445 27.3234C54.9445 26.0374 54.8581 24.7426 54.9726 23.4664C55.1887 21.0588 55.4567 18.6501 55.8262 16.262C56.3189 13.0824 56.9164 9.9212 58.3697 6.9996C58.7922 6.15024 58.6863 5.29108 58.0715 4.56258C57.4232 3.78726 56.5739 3.47365 55.5593 3.71213C54.803 3.88745 54.3611 4.40033 54.0294 5.05478C52.4486 8.17238 51.7549 11.5492 51.1931 14.964C50.9575 16.3949 50.7901 17.8377 50.5794 19.372C50.4897 19.1488 50.4248 19.0203 50.387 18.8853C49.7787 16.751 49.1596 14.6188 48.575 12.478C48.3146 11.523 48.2077 10.5179 47.8868 9.5869C47.3465 8.02864 45.595 7.70414 44.4681 8.91177C44.1905 9.22008 43.9544 9.56386 43.7658 9.93427C42.6345 12.0751 41.5216 14.2268 40.4011 16.3742C39.6178 17.8747 38.8333 19.3753 38.024 20.9183C37.9782 20.8186 37.9399 20.7156 37.9095 20.6101C37.071 16.1412 36.2355 11.6718 35.4028 7.20215C35.2504 6.38 35.1802 5.50233 34.3417 5.06022C33.4071 4.56911 32.4422 4.64207 31.5865 5.24316C30.7847 5.80505 30.5622 6.66748 30.7156 7.60505C31.1564 10.2947 31.5432 12.9953 32.0986 15.6631C32.8474 19.2664 33.6977 22.8501 34.5837 26.4207C34.8279 27.4007 35.2742 28.3644 35.7788 29.2519C36.3104 30.1862 37.1834 30.331 38.0305 29.6776C38.6053 29.2323 39.1812 28.6976 39.5432 28.0835C40.6237 26.2508 41.6232 24.3669 42.615 22.4809C43.4341 20.9325 44.1904 19.3524 44.9856 17.7615ZM90.4647 15.2983C90.4312 13.9666 90.2691 12.6294 89.8066 11.3379C88.7423 8.36077 86.3642 6.59235 83.4026 6.57383C80.912 6.55859 79.0309 7.71503 77.5981 9.6751C75.2459 12.8929 74.4269 16.5212 74.9682 20.4468C75.2297 22.3459 75.9526 24.0827 77.3961 25.4112C80.1708 27.9648 84.617 27.6381 87.1303 24.6762C89.4058 21.9963 90.3869 18.8221 90.4647 15.2983ZM65.0526 27.1285C65.3918 27.1034 65.7343 27.1001 66.0715 27.0511C68.2022 26.7364 69.757 25.5266 70.9542 23.7963C72.282 21.8966 73.1302 19.6992 73.4253 17.3945C73.7041 15.2472 73.6101 13.1477 72.8472 11.1005C70.9445 5.99561 64.6711 5.14625 61.5172 8.77238C58.0293 12.7829 57.0321 17.4359 58.6679 22.5179C59.6242 25.4907 62.0618 27.1067 65.0526 27.1285Z" fill="#181818"/>
<path d="M36.3568 47.1201C35.9473 51.2232 35.5378 55.3263 35.1251 59.4566H30.4411C31.218 53.3216 31.9927 47.2094 32.7718 41.0657H39.0581C39.7409 44.3782 40.427 47.7081 41.1305 51.1198C41.4481 49.543 41.729 48.0479 42.0521 46.5626C42.426 44.8486 42.8301 43.1423 43.2407 41.4381C43.2785 41.2813 43.4848 41.0493 43.6156 41.0482C45.6285 41.0232 47.6426 41.0308 49.7279 41.0308C50.5588 47.1756 51.3789 53.302 52.2087 59.4893H48.7685C47.2903 59.4893 47.2936 59.4893 47.1477 58.0116C46.7771 54.392 46.4033 50.7735 45.9592 47.1299C45.9149 47.266 45.8619 47.3989 45.8284 47.5372C44.8978 51.3673 43.9718 55.1981 43.0505 59.0297C42.9662 59.3815 42.8344 59.5078 42.48 59.4969C41.6891 59.4729 40.896 59.4686 40.1029 59.4969C39.7118 59.511 39.5475 59.3934 39.4546 58.996C38.5038 55.1521 37.5281 51.3147 36.5589 47.4762C36.5286 47.3575 36.4865 47.241 36.4508 47.1245L36.3568 47.1201Z" fill="#181818"/>
<path d="M58.7706 47.0951C58.3611 51.1971 57.9526 55.2991 57.5388 59.4435H52.8603C53.0148 58.1989 53.1639 56.9673 53.3206 55.7412C53.8471 51.5742 54.3751 47.4072 54.9046 43.2403C54.9791 42.6479 55.0645 42.0566 55.1207 41.4631C55.1498 41.1593 55.2482 41.021 55.5831 41.0276C57.3994 41.0417 59.2168 41.0515 61.0331 41.0221C61.4999 41.0145 61.5031 41.3118 61.5626 41.5981C62.1857 44.6268 62.8058 47.6559 63.4232 50.6853C63.4311 50.735 63.4504 50.7822 63.4794 50.8232C63.5085 50.8642 63.5465 50.8979 63.5906 50.9216C63.7841 49.9241 63.958 48.9223 64.1763 47.9292C64.6495 45.7753 65.1487 43.6279 65.6231 41.474C65.7008 41.119 65.8575 41.0221 66.2054 41.0265C68.0228 41.0424 69.8395 41.0424 71.6554 41.0265C72.0152 41.0265 72.1384 41.1288 72.187 41.5023C72.9528 47.2969 73.7296 53.0896 74.5177 58.8805C74.5414 59.0569 74.5436 59.2355 74.5598 59.4544H69.6911C69.2589 55.347 68.8292 51.2352 68.4021 47.119L68.3113 47.1114C67.3237 51.2243 66.3373 55.3383 65.34 59.4903C64.2865 59.4903 63.2633 59.5056 62.2422 59.4707C62.119 59.4707 61.9397 59.2105 61.8954 59.0417C61.2795 56.6624 60.682 54.2776 60.0801 51.8951L58.8786 47.1114L58.7706 47.0951Z" fill="#181818"/>
<path d="M92.4484 59.4577H87.5171V41.0951C87.5666 41.07 87.6193 41.0521 87.6737 41.0417C90.2064 41.0885 92.7413 41.0907 95.2718 41.2083C96.4257 41.2617 97.5084 41.7136 98.4862 42.3648C101.668 44.4827 101.512 49.0671 98.2021 50.9673C98.094 51.0294 97.986 51.0871 97.8023 51.1851C99.0989 53.9259 100.395 56.6548 101.727 59.461C101.486 59.474 101.316 59.4904 101.147 59.4904C99.7807 59.4904 98.4138 59.4751 97.0416 59.5012C96.6429 59.5089 96.4419 59.3836 96.2701 59.0178C95.1216 56.5644 93.9471 54.1176 92.7802 51.6795C92.7076 51.5031 92.5915 51.3483 92.443 51.2297L92.4484 59.4577ZM92.4344 49.0606C93.181 48.9016 93.8844 48.8036 94.5543 48.5967C95.2242 48.3898 95.6348 47.8813 95.6748 47.1582C95.7126 46.396 95.5894 45.662 94.9087 45.184C94.1718 44.6668 93.3182 44.6319 92.4344 44.6025V49.0606Z" fill="#181818"/>
<path d="M85.3507 48.3506C85.3507 49.5757 85.3507 50.6972 85.3507 51.8188C85.3507 51.9277 85.3388 52.0301 85.3302 52.1891H81.0201V55.5724H86.0076C86.0344 55.7252 86.0531 55.8793 86.0638 56.0341C86.0638 57.049 86.0638 58.0628 86.0638 59.0776C86.0638 59.3292 86.0638 59.5383 85.7116 59.5372C82.5274 59.523 79.3442 59.5208 76.1611 59.5143C76.146 59.5143 76.1308 59.4969 76.0682 59.4599V41.1114H85.9795V44.9902H81.006V48.3506H85.3507Z" fill="#181818"/>
<path d="M85.7678 15.2624C85.7299 17.4991 85.3356 19.249 84.1881 20.7277C83.7704 21.2452 83.2644 21.6833 82.6938 22.0214C81.7894 22.5658 80.9239 22.3165 80.3815 21.4061C79.609 20.1125 79.3572 18.7067 79.5063 17.1963C79.6704 15.4771 80.335 13.845 81.4166 12.5052C81.6739 12.1812 81.9772 11.8972 82.3167 11.6624C83.2805 10.996 84.2972 11.2268 84.9023 12.2319C85.5301 13.2795 85.8013 14.4272 85.7678 15.2624Z" fill="#181818"/>
<path d="M68.9056 15.6588C68.8364 17.5731 68.4345 19.3883 67.1822 20.8987C66.8089 21.3378 66.3665 21.7119 65.8726 22.0061C64.9575 22.5593 64.0726 22.3197 63.5031 21.4061C62.6884 20.0994 62.4875 18.6381 62.6312 17.1343C62.7858 15.485 63.419 13.9182 64.4518 12.6294C64.7474 12.2439 65.1006 11.9071 65.4988 11.6308C66.4388 11.0058 67.4188 11.2312 68.0066 12.1938C68.6414 13.233 68.9544 14.4394 68.9056 15.6588Z" fill="#181818"/>
</g>
<defs>
<clipPath id="clip0_20_17784">
<rect width="126" height="60" fill="white"/>
</clipPath>
</defs>
</svg>
